<?xml version="1.0" standalone="no"?>
<!DOCTYPE svg PUBLIC "-//W3C//DTD SVG 20010904//EN"
 "http://www.w3.org/TR/2001/REC-SVG-20010904/DTD/svg10.dtd">
<svg version="1.0" xmlns="http://www.w3.org/2000/svg"
 width="50" height="50" viewBox="0 0 2560.000000 1271.000000"
 preserveAspectRatio="xMidYMid meet">

<g transform="translate(0.000000,1271.000000) scale(0.100000,-0.100000)"
fill="#000000" stroke="none">
<path d="M4310 12699 c-1555 -70 -2729 -490 -3445 -1230 -484 -501 -754 -1112
-842 -1902 -24 -220 -24 -653 0 -805 141 -891 751 -1584 2012 -2286 262 -146
836 -431 1405 -697 1194 -557 1641 -820 1991 -1169 197 -197 302 -364 361
-577 19 -68 22 -104 22 -283 0 -234 -16 -365 -68 -574 -157 -620 -555 -1123
-1191 -1505 -554 -334 -1336 -563 -1925 -565 -243 0 -376 24 -562 104 -282
121 -500 364 -574 638 -18 67 -20 289 -4 422 78 650 421 1187 1005 1575 204
136 461 265 638 321 66 21 68 26 41 146 -63 275 -250 474 -514 545 -93 26
-467 25 -630 -1 -642 -100 -1139 -418 -1496 -956 -262 -394 -433 -919 -489
-1499 -18 -187 -21 -561 -5 -686 75 -595 338 -1039 799 -1349 268 -179 610
-297 1011 -348 133 -16 665 -16 880 0 861 68 1631 246 2318 538 1276 542 2109
1420 2381 2509 80 320 120 766 92 1015 -84 744 -646 1372 -1838 2053 -306 176
-556 305 -1383 716 -1026 510 -1330 675 -1690 919 -209 141 -340 245 -483 382
-279 268 -417 504 -458 780 -15 103 -7 389 16 565 112 875 535 1485 1280 1850
444 218 938 329 1582 355 442 18 758 -21 1043 -127 453 -169 759 -513 850
-954 27 -130 23 -293 -10 -409 -29 -102 -116 -280 -191 -392 -137 -205 -374
-461 -597 -647 -95 -79 -111 -97 -106 -115 48 -155 227 -285 475 -343 107 -26
128 -27 354 -27 268 -1 347 11 552 79 566 189 927 677 1017 1375 81 625 -43
1118 -389 1545 -467 577 -1350 947 -2420 1015 -181 11 -554 11 -815 -1z"/>
<path d="M18725 10889 c-95 -14 -209 -38 -278 -59 l-63 -20 -12 -92 c-31 -250
-127 -663 -543 -2343 -571 -2301 -796 -3268 -954 -4090 l-37 -189 -94 -139
c-281 -413 -532 -639 -752 -678 -52 -9 -66 -8 -104 8 -110 49 -167 231 -189
605 -20 345 9 573 176 1368 125 596 161 812 174 1035 21 389 -51 556 -259 595
-30 6 -157 9 -285 8 -216 -2 -234 -1 -290 20 -71 26 -115 60 -173 133 -96 121
-136 161 -185 186 -47 25 -65 28 -182 31 -297 9 -621 -72 -970 -243 -974 -476
-1699 -1494 -1884 -2645 -20 -125 -35 -261 -46 -420 l-7 -85 -76 -49 c-641
-409 -1067 -599 -1286 -572 -31 4 -82 21 -115 37 -137 68 -206 208 -218 439
-8 170 29 393 168 995 116 500 499 1996 539 2100 8 21 41 31 322 100 425 104
730 175 995 230 389 81 394 84 605 355 263 340 451 606 479 680 62 164 -26
303 -226 355 -193 50 -784 -31 -1640 -224 -93 -21 -171 -38 -172 -37 -1 1 19
87 43 191 178 759 478 2070 515 2245 l20 95 -30 27 c-42 38 -116 45 -262 24
-216 -30 -682 -162 -821 -232 -283 -143 -579 -498 -672 -804 -27 -90 -193
-727 -377 -1450 l-111 -435 -432 -149 c-1548 -533 -2172 -751 -2204 -772 -28
-18 -28 -32 2 -130 83 -273 215 -535 351 -696 107 -126 243 -211 366 -228 139
-20 405 39 845 185 242 81 674 239 727 267 9 5 17 6 17 3 0 -3 -16 -68 -34
-143 -226 -895 -442 -1958 -517 -2537 -30 -228 -32 -541 -6 -663 128 -581 561
-840 1337 -800 596 30 1250 275 1869 698 l115 79 47 -94 c166 -333 451 -551
836 -641 148 -35 399 -44 559 -20 461 68 940 320 1330 699 l72 69 55 -110
c144 -286 305 -461 522 -567 138 -67 209 -85 360 -92 92 -4 135 -2 185 11 151
38 325 152 502 329 85 86 241 270 314 372 l21 29 6 -129 c10 -222 59 -355 170
-466 63 -64 160 -117 262 -145 81 -22 331 -30 450 -14 239 33 557 138 689 229
39 27 45 36 50 78 3 27 15 291 26 588 39 1047 78 1506 170 1960 30 149 90 388
97 382 2 -2 17 -98 34 -213 207 -1419 631 -2524 1290 -3358 134 -169 439 -475
602 -605 571 -452 1198 -697 1977 -772 154 -15 633 -15 835 0 839 63 1484 275
1882 620 165 143 286 333 340 536 34 130 39 344 9 470 -24 104 -30 115 -67
115 -43 0 -59 -10 -189 -119 -167 -140 -353 -277 -473 -349 -424 -253 -885
-399 -1454 -458 -228 -24 -632 -24 -783 -1 -373 58 -688 183 -995 395 -838
580 -1488 1824 -1820 3487 -48 241 -111 624 -103 630 2 1 91 69 198 150 1209
920 2070 1707 2246 2056 131 262 48 471 -246 619 -128 64 -373 140 -452 140
-22 0 -50 -26 -159 -152 -279 -323 -515 -576 -853 -913 -520 -520 -854 -808
-1217 -1051 -135 -90 -308 -189 -316 -181 -8 9 32 201 78 372 55 204 121 419
319 1035 236 737 299 946 384 1285 102 410 140 650 140 900 1 162 -1 188 -22
255 -35 111 -79 187 -152 261 -105 106 -241 171 -431 203 -101 17 -377 20
-484 5z m-3865 -4586 c0 -228 -27 -634 -61 -913 -132 -1103 -465 -1805 -963
-2030 -94 -43 -209 -70 -323 -77 -251 -15 -391 68 -464 277 -21 58 -23 83 -23
235 1 192 15 280 85 513 56 188 116 336 229 567 408 832 1003 1456 1445 1515
33 4 63 8 68 9 4 0 7 -43 7 -96z"/>
<path d="M24005 7303 c-202 -24 -305 -45 -470 -99 -436 -142 -871 -415 -1249
-784 -562 -547 -897 -1181 -976 -1844 -14 -114 -14 -414 0 -536 71 -635 367
-1137 842 -1432 459 -285 1147 -362 1779 -199 503 130 1007 410 1340 745 164
165 193 280 119 477 -55 148 -245 359 -350 389 -27 8 -37 1 -152 -107 -241
-227 -390 -338 -582 -435 -249 -125 -552 -187 -860 -175 -237 9 -369 60 -501
192 -126 125 -184 264 -206 493 -10 102 -1 315 15 341 3 4 49 3 103 -2 114
-10 488 -2 618 13 740 86 1305 356 1659 794 229 283 342 552 387 919 26 219
-3 533 -61 646 -35 69 -139 189 -223 257 -288 232 -675 358 -1084 353 -65 -1
-131 -4 -148 -6z m490 -617 c93 -39 114 -192 69 -506 -36 -248 -179 -550 -381
-800 -85 -106 -263 -274 -366 -347 -164 -115 -377 -210 -558 -247 -89 -18
-249 -36 -319 -36 l-52 0 7 43 c51 329 317 866 629 1267 105 136 317 348 431
433 140 105 310 182 440 200 56 8 66 7 100 -7z"/>
</g>
</svg>
